<?xml version="1.0" encoding="UTF-8" standalone="no"?><!DOCTYPE svg PUBLIC "-//W3C//DTD SVG 1.1//EN" "http://www.w3.org/Graphics/SVG/1.1/DTD/svg11.dtd"><svg width="100%" height="100%" viewBox="0 0 1792 1792" version="1.1" xmlns="http://www.w3.org/2000/svg" xmlns:xlink="http://www.w3.org/1999/xlink" xml:space="preserve" style="fill-rule:evenodd;clip-rule:evenodd;stroke-linejoin:round;stroke-miterlimit:1.41421;"><path d="M1623.13,1035.83l0,-727.133c0,-7.574 -2.767,-14.129 -8.302,-19.664c-5.535,-5.535 -12.09,-8.303 -19.664,-8.303l-1398.33,0c-7.574,0 -14.129,2.768 -19.664,8.303c-5.535,5.535 -8.302,12.09 -8.302,19.664l0,727.133c0,7.575 2.767,14.129 8.302,19.664c5.535,5.535 12.09,8.303 19.664,8.303l1398.33,0c7.574,0 14.129,-2.768 19.664,-8.303c5.535,-5.535 8.302,-12.089 8.302,-19.664Zm111.867,-727.133l0,950.867c0,38.454 -13.692,71.373 -41.076,98.757c-27.384,27.384 -60.303,41.076 -98.757,41.076l-475.434,0c0,21.558 4.661,44.135 13.984,67.732c9.322,23.597 18.644,44.28 27.966,62.051c9.323,17.77 13.984,30.443 13.984,38.017c0,15.149 -5.535,28.258 -16.606,39.328c-11.07,11.07 -24.179,16.605 -39.328,16.605l-447.466,0c-15.149,0 -28.258,-5.535 -39.328,-16.605c-11.071,-11.07 -16.606,-24.179 -16.606,-39.328c0,-8.157 4.661,-20.975 13.984,-38.454c9.322,-17.479 18.644,-37.872 27.966,-61.177c9.323,-23.306 13.984,-46.029 13.984,-68.169l-475.434,0c-38.454,0 -71.373,-13.692 -98.757,-41.076c-27.384,-27.384 -41.076,-60.303 -41.076,-98.757l0,-950.867c0,-38.454 13.692,-71.373 41.076,-98.757c27.384,-27.384 60.303,-41.076 98.757,-41.076l1398.33,0c38.454,0 71.373,13.692 98.757,41.076c27.384,27.384 41.076,60.303 41.076,98.757Z" style="fill:#fff;fill-rule:nonzero;"/></svg>