<?xml version="1.0" encoding="UTF-8" standalone="no"?><!DOCTYPE svg PUBLIC "-//W3C//DTD SVG 1.1//EN" "http://www.w3.org/Graphics/SVG/1.1/DTD/svg11.dtd"><svg width="100%" height="100%" viewBox="0 0 48 48" version="1.1" xmlns="http://www.w3.org/2000/svg" xmlns:xlink="http://www.w3.org/1999/xlink" xml:space="preserve" style="fill-rule:evenodd;clip-rule:evenodd;stroke-linejoin:round;stroke-miterlimit:1.41421;"><path d="M8.31,13.236l-0.18,1.66l-5.382,1.357c-0.837,0.211 -1.346,1.063 -1.135,1.901l4.976,19.73c0.211,0.838 1.063,1.346 1.9,1.135l6.82,-1.72l4.476,0.486l-10.913,2.751c-1.676,0.423 -3.378,-0.593 -3.801,-2.27l-4.975,-19.73c-0.423,-1.676 0.593,-3.378 2.27,-3.801l5.944,-1.499Zm16.526,-4.167l6.366,-1.605c1.676,-0.423 3.378,0.593 3.801,2.27l0.114,0.45l-1.665,-0.18c-0.256,-0.77 -1.068,-1.224 -1.867,-1.023l-2.274,0.574l-4.475,-0.486Z" style="fill:#d9d9d9;"/><path d="M40.334,38.843l-29.563,-3.235c-1.718,-0.188 -2.959,-1.734 -2.771,-3.453l2.214,-20.227c0.188,-1.718 1.733,-2.959 3.452,-2.771l29.563,3.235c1.718,0.188 2.959,1.734 2.771,3.453l-2.214,20.227c-0.188,1.718 -1.733,2.959 -3.452,2.771Zm4.11,-23.169c0.094,-0.859 -0.527,-1.632 -1.386,-1.726l-29.562,-3.235c-0.859,-0.094 -1.633,0.527 -1.727,1.386l-2.213,20.227c-0.094,0.859 0.527,1.632 1.386,1.726l29.562,3.235c0.859,0.094 1.633,-0.527 1.727,-1.386l2.213,-20.227Zm-4.871,18.138l-4.388,-5.467l-3.124,2.507l2.31,2.878c0.264,0.328 0.211,0.809 -0.118,1.074c-0.329,0.264 -0.81,0.211 -1.074,-0.118l-9.931,-12.371l-10.645,8.545c-0.329,0.264 -0.81,0.212 -1.075,-0.117c-0.264,-0.33 -0.211,-0.811 0.118,-1.075l11.138,-8.941c0.029,-0.034 0.05,-0.074 0.086,-0.104c0.17,-0.136 0.38,-0.184 0.58,-0.157c0.202,0.017 0.396,0.109 0.533,0.279c0.029,0.037 0.04,0.08 0.061,0.12l7.06,8.795l3.617,-2.903c0.029,-0.034 0.049,-0.074 0.086,-0.104c0.17,-0.135 0.38,-0.184 0.58,-0.157c0.201,0.017 0.396,0.11 0.532,0.279c0.029,0.037 0.04,0.081 0.062,0.12l4.784,5.96c0.264,0.329 0.211,0.809 -0.118,1.074c-0.329,0.264 -0.81,0.211 -1.074,-0.117Zm-8.258,-13.276c-1.718,-0.188 -2.959,-1.734 -2.771,-3.453c0.138,-1.262 1.012,-2.261 2.145,-2.631c-0.218,0.371 -0.369,0.79 -0.419,1.246c-0.188,1.718 1.053,3.264 2.772,3.452c0.456,0.05 0.897,-0.006 1.307,-0.139c-0.606,1.026 -1.771,1.663 -3.034,1.525Z" style="fill:#d9d9d9;"/></svg>